<?xml version="1.0" standalone="no"?>
<!DOCTYPE svg PUBLIC "-//W3C//DTD SVG 20010904//EN"
 "http://www.w3.org/TR/2001/REC-SVG-20010904/DTD/svg10.dtd">
<svg version="1.0" xmlns="http://www.w3.org/2000/svg"
 width="1280.000000pt" height="1211.000000pt" viewBox="0 0 1280.000000 1211.000000"
 preserveAspectRatio="xMidYMid meet">
<metadata>
Created by potrace 1.15, written by Peter Selinger 2001-2017
</metadata>
<g transform="translate(0.000000,1211.000000) scale(0.100000,-0.100000)"
fill="#000000" stroke="none">
<path d="M7725 10958 c-555 -628 -1011 -1145 -1013 -1149 -2 -5 115 -9 260 -8
l263 0 850 969 c468 534 868 990 889 1016 l39 45 -134 135 c-73 74 -136 134
-139 134 -3 -1 -459 -514 -1015 -1142z"/>
<path d="M4151 10839 c-982 -76 -1674 -1018 -1460 -1984 59 -266 199 -534 389
-746 291 -326 747 -529 1186 -529 l104 0 0 -1105 0 -1105 -654 0 -653 0 -23
-62 c-53 -145 -154 -269 -260 -320 l-55 -27 158 0 157 -1 0 -369 0 -370 -52
-10 c-152 -30 -236 -36 -483 -36 -277 1 -357 10 -555 60 -158 40 -248 73 -395
146 -165 81 -292 170 -421 292 -97 91 -233 252 -234 275 0 9 175 12 843 13
l842 0 -52 24 c-106 48 -204 170 -255 318 l-23 67 -1002 0 c-686 0 -1003 -3
-1003 -10 0 -6 16 -51 35 -101 103 -267 296 -558 516 -778 422 -422 977 -661
1659 -714 l155 -12 0 -1450 0 -1450 -92 -3 -93 -3 0 -59 0 -60 -60 0 -60 0 0
-45 0 -45 -90 0 -90 0 0 -60 0 -60 -205 0 -205 0 0 -45 0 -45 -860 0 -860 0 0
-215 0 -215 6400 0 6400 0 0 215 0 215 -1060 0 -1060 0 0 65 0 65 -207 2 -208
3 -1 55 -1 55 -91 3 -92 3 0 44 0 45 -60 0 -60 0 0 60 0 59 -87 3 -88 3 -3
353 c-2 271 -5 352 -15 353 -6 0 35 9 93 19 511 90 960 447 1239 982 127 244
207 493 257 798 21 130 30 525 15 677 -45 443 -210 887 -452 1213 -74 101
-206 248 -258 289 l-40 32 -68 -34 c-164 -83 -394 -152 -610 -184 -164 -24
-486 -24 -643 1 -225 34 -432 97 -607 183 l-74 37 -70 -70 c-715 -700 -897
-1931 -429 -2889 277 -566 727 -934 1263 -1034 56 -11 96 -20 90 -20 -10 -1
-13 -79 -13 -356 l0 -355 -90 0 -90 0 0 -60 0 -60 -60 0 -60 0 0 -45 0 -45
-90 0 -90 0 0 -60 0 -60 -205 0 -205 0 0 -65 0 -65 -530 0 -530 0 0 4640 0
4640 -162 0 -163 0 -399 -1918 c-219 -1054 -430 -2063 -467 -2242 -201 -958
-979 -4698 -979 -4704 0 -3 -106 -6 -235 -6 l-235 0 5 22 c3 13 72 349 154
748 83 399 319 1544 526 2545 207 1001 416 2014 465 2250 162 785 468 2263
575 2779 58 280 105 513 105 517 0 5 -191 9 -424 9 -327 0 -426 3 -433 13 -6
6 -16 30 -23 52 -27 84 -104 234 -177 345 -98 148 -294 346 -433 439 -321 214
-682 310 -1059 280z m414 -283 c258 -58 478 -174 663 -351 562 -535 575 -1415
27 -1960 -250 -249 -552 -384 -905 -402 -535 -27 -1039 265 -1283 744 -106
209 -149 387 -150 618 -1 381 134 708 402 975 202 201 455 334 736 385 105 19
410 14 510 -9z m-195 -5756 l0 -260 -57 0 c-114 0 -217 78 -249 188 -48 165
77 331 249 332 l57 0 0 -260z m-713 4 c164 -79 219 -303 110 -446 -139 -184
-407 -159 -515 47 -36 69 -37 188 -3 255 81 157 255 219 408 144z m713 -2449
l0 -1925 -270 0 -270 0 0 45 0 45 -205 0 -205 0 0 60 0 60 -90 0 -90 0 0 45 0
45 -60 0 -60 0 0 60 0 59 -92 3 -93 3 -3 1452 -2 1452 42 5 c24 2 106 12 183
21 438 51 845 208 1140 439 39 30 71 55 73 55 1 1 2 -865 2 -1924z m6667 1151
c-32 -479 -321 -923 -749 -1151 -321 -170 -709 -210 -1064 -109 -131 37 -334
140 -452 229 -214 161 -384 387 -475 630 -51 135 -73 241 -92 438 l-5 57 1421
0 1422 0 -6 -94z"/>
<path d="M3820 10441 c-83 -27 -158 -89 -196 -163 -11 -20 -19 -65 -22 -115
-4 -74 -2 -88 21 -135 15 -29 64 -100 110 -158 91 -112 423 -470 437 -470 14
0 25 224 25 525 l0 290 -26 56 c-50 107 -142 169 -258 175 -36 2 -77 0 -91 -5z"/>
<path d="M4607 10430 c-84 -21 -164 -84 -202 -159 -39 -78 -69 -407 -63 -699
l3 -163 110 97 c303 267 449 419 492 512 65 140 1 318 -140 386 -59 29 -144
40 -200 26z"/>
<path d="M3243 9892 c-138 -49 -211 -162 -201 -310 6 -78 31 -135 85 -188 49
-49 109 -74 217 -90 113 -17 486 -36 623 -32 l102 3 -138 155 c-201 225 -394
410 -463 444 -75 37 -155 43 -225 18z"/>
<path d="M5124 9862 c-28 -10 -80 -39 -116 -64 -83 -60 -314 -267 -441 -395
-91 -93 -97 -101 -75 -106 12 -4 150 -12 306 -19 443 -19 560 0 647 107 49 60
67 110 68 190 0 52 -5 83 -22 121 -61 138 -230 215 -367 166z"/>
<path d="M3327 9129 c-100 -8 -153 -30 -211 -86 -148 -143 -104 -401 83 -487
66 -30 189 -29 252 1 69 35 233 171 443 369 l190 179 -40 6 c-48 9 -487 30
-569 28 -33 -1 -99 -5 -148 -10z"/>
<path d="M4486 9118 c369 -420 521 -567 623 -603 98 -34 211 -10 291 61 78 71
95 110 95 224 0 114 -17 153 -96 224 -58 52 -107 70 -239 85 -97 12 -471 31
-604 31 l-89 0 19 -22z"/>
<path d="M4354 8883 c-14 -208 -11 -660 4 -714 47 -160 233 -250 394 -190 131
50 210 189 187 330 -10 65 -48 130 -141 242 -80 97 -419 459 -429 459 -4 0
-11 -57 -15 -127z"/>
<path d="M4040 8861 c-222 -198 -411 -396 -445 -465 -25 -51 -27 -64 -23 -139
3 -50 11 -95 22 -115 28 -54 86 -112 140 -140 71 -37 188 -38 260 -3 158 78
192 197 203 714 3 158 4 287 2 287 -2 0 -74 -63 -159 -139z"/>
<path d="M2575 5700 c-59 -14 -104 -39 -151 -82 -53 -48 -104 -145 -104 -195
0 -18 -5 -33 -11 -33 -21 0 -2 -110 31 -176 36 -73 91 -126 169 -163 76 -35
211 -37 283 -4 63 29 144 106 174 165 26 52 45 156 33 179 -5 8 -15 39 -24 70
-47 173 -230 282 -400 239z m395 -372 c0 -18 -13 -60 -29 -93 -94 -201 -359
-247 -516 -91 -46 46 -81 115 -91 175 l-7 41 322 0 321 0 0 -32z"/>
</g>
</svg>
